<svg width="1000" height="1000" viewBox="0 0 1000 1000" fill="none" xmlns="http://www.w3.org/2000/svg">
<path d="M706.889 426.338H652.968C642.727 426.338 634.459 417.77 634.459 407.156C634.459 396.542 642.727 387.974 652.968 387.974H706.889C717.13 387.974 725.397 396.542 725.397 407.156C725.397 417.77 717.069 426.338 706.889 426.338ZM593.926 426.338H347.641C337.4 426.338 329.133 417.77 329.133 407.156C329.133 396.542 337.4 387.974 347.641 387.974H593.926C604.167 387.974 612.435 396.542 612.435 407.156C612.435 417.77 604.106 426.338 593.926 426.338Z" fill="#B303CE"/>
<path d="M418.652 739.769C418.652 744.387 419.53 748.96 421.235 753.227C422.94 757.494 425.439 761.37 428.59 764.636C431.741 767.901 435.482 770.492 439.599 772.259C443.715 774.026 448.128 774.936 452.584 774.936C457.04 774.936 461.452 774.026 465.569 772.259C469.686 770.492 473.427 767.901 476.577 764.636C479.728 761.37 482.228 757.494 483.933 753.227C485.638 748.96 486.516 744.387 486.516 739.769C486.516 735.151 485.638 730.578 483.933 726.312C482.228 722.045 479.728 718.168 476.577 714.903C473.427 711.637 469.686 709.047 465.569 707.279C461.452 705.512 457.04 704.603 452.584 704.603C448.128 704.603 443.715 705.512 439.599 707.279C435.482 709.047 431.741 711.637 428.59 714.903C425.439 718.168 422.94 722.045 421.235 726.312C419.53 730.578 418.652 735.151 418.652 739.769Z" fill="black"/>
<path d="M678.571 739.769C678.571 749.096 682.146 758.041 688.51 764.636C694.873 771.231 703.504 774.936 712.503 774.936C721.503 774.936 730.133 771.231 736.497 764.636C742.86 758.041 746.435 749.096 746.435 739.769C746.435 730.442 742.86 721.498 736.497 714.903C730.133 708.308 721.503 704.603 712.503 704.603C703.504 704.603 694.873 708.308 688.51 714.903C682.146 721.498 678.571 730.442 678.571 739.769Z" fill="black"/>
<path d="M734.281 643.157H419.022C395.763 643.157 376.823 623.527 376.823 599.422V598.527L354.675 354.086V353.958V353.83L350.973 318.408C345.667 262.908 315.437 243.279 290.944 236.501L247.943 225.568C238.01 223.01 228.015 229.34 225.548 239.634C223.08 249.929 229.188 260.287 239.121 262.844L281.628 273.65C291.623 276.4 298.964 281.579 304.208 289.443C309.514 297.372 312.846 308.433 314.141 322.308L317.843 357.859L339.806 600.381C340.3 645.203 375.651 681.52 419.022 681.52H734.281C744.523 681.52 752.79 672.953 752.79 662.339C752.79 651.725 744.523 643.157 734.281 643.157Z" fill="#444444"/>
<path d="M703.743 307.922H420.379C410.138 307.922 401.871 316.49 401.871 327.104C401.871 337.718 410.138 346.285 420.379 346.285H703.743C722.375 346.285 737.613 361.823 737.983 381.005L725.706 525.828L725.644 526.659V527.49C725.644 547.056 710.283 562.977 691.404 562.977H454.312C444.07 562.977 435.803 571.544 435.803 582.158C435.803 592.772 444.07 601.34 454.312 601.34H691.404C730.395 601.34 762.168 568.667 762.661 528.385L774.939 383.498L775 382.667V381.836C775 341.042 743.042 307.922 703.743 307.922Z" fill="#444444"/>
<path d="M437.345 719.884C441.787 719.884 445.427 723.657 445.427 728.26C445.427 732.864 441.787 736.636 437.345 736.636C432.903 736.636 429.263 732.864 429.263 728.26C429.263 723.657 432.903 719.884 437.345 719.884ZM437.345 681.52C412.421 681.52 392.247 702.429 392.247 728.26C392.247 754.092 412.421 775 437.345 775C462.27 775 482.444 754.092 482.444 728.26C482.444 702.429 462.27 681.52 437.345 681.52ZM693.131 719.884C697.573 719.884 701.213 723.657 701.213 728.26C701.213 732.864 697.573 736.636 693.131 736.636C688.689 736.636 685.049 732.864 685.049 728.26C685.049 723.657 688.689 719.884 693.131 719.884ZM693.131 681.52C668.207 681.52 648.033 702.429 648.033 728.26C648.033 754.092 668.207 775 693.131 775C718.056 775 738.23 754.092 738.23 728.26C738.23 702.429 718.056 681.52 693.131 681.52Z" fill="#B303CE"/>
<path d="M76.9873 255.773L500 11.547L923.013 255.773V744.227L500 988.453L76.9873 744.227V255.773Z" stroke="black" stroke-width="20"/>
</svg>
