<svg width="1000" height="1000" viewBox="0 0 1000 1000" fill="none" xmlns="http://www.w3.org/2000/svg">
<path d="M785.229 635.575C785.46 634.86 785.673 634.136 785.859 633.409C785.921 633.173 785.976 632.939 786.031 632.703C786.18 632.07 786.312 631.433 786.426 630.791C786.475 630.515 786.526 630.237 786.571 629.959C786.671 629.321 786.743 628.679 786.808 628.036C786.835 627.773 786.87 627.513 786.891 627.248C786.959 626.35 787.001 625.449 787 624.54V624.533L786.992 576.664V576.663L786.985 545.998V545.996L786.984 541.065L786.979 511.137L786.968 454.002L786.962 423.337L786.954 375.375C786.953 371.869 786.416 368.436 785.426 365.136C784.893 363.361 784.222 361.629 783.424 359.946C780.163 353.069 774.773 347.055 767.731 342.697C766.699 342.059 765.647 341.444 764.545 340.879L734.442 325.431L706.26 310.969L683.571 299.326L596.806 254.802L562.957 237.432L537.572 224.405L521.84 216.333C507.979 209.22 490.9 209.222 477.04 216.34L461.415 224.364L436.03 237.401L402.184 254.783L315.437 299.338L277.417 318.863L249.243 333.333L234.394 340.96C233.324 341.509 232.302 342.106 231.298 342.724C226.992 345.377 223.306 348.654 220.333 352.362C218.337 354.852 216.673 357.538 215.365 360.369C213.188 365.087 212 370.197 212 375.464L212.009 423.34L212.016 454.005L212.032 540.296L212.033 544.989V545.983V545.985V546V546.006L212.039 576.666V578.847L212.042 593.612L212.047 624.62V624.627C212.049 625.531 212.091 626.429 212.158 627.323C212.179 627.585 212.213 627.845 212.238 628.105C212.303 628.749 212.378 629.388 212.475 630.022C212.519 630.298 212.57 630.573 212.62 630.848C212.733 631.487 212.862 632.12 213.011 632.751C213.067 632.986 213.124 633.223 213.183 633.457C213.367 634.176 213.575 634.888 213.803 635.592C213.846 635.724 213.883 635.858 213.928 635.99C215.124 639.551 216.874 642.929 219.114 646.042V646.044L219.117 646.045C220.659 648.189 222.429 650.201 224.416 652.056C224.481 652.117 224.545 652.18 224.61 652.241C225.544 653.101 226.523 653.927 227.548 654.712C227.713 654.841 227.885 654.964 228.051 655.089C229.086 655.863 230.149 656.61 231.267 657.301C232.299 657.938 233.352 658.554 234.453 659.119L264.133 674.35L292.315 688.813L315.427 700.674L436.037 762.568L461.423 775.595L477.154 783.667C491.016 790.78 508.095 790.778 521.955 783.66L537.58 775.636L562.965 762.599L596.811 745.218L669.925 707.67L683.563 700.665L718.255 682.849L746.429 668.379L764.608 659.042C765.678 658.493 766.701 657.896 767.704 657.279C768.823 656.588 769.888 655.844 770.922 655.075C771.092 654.95 771.263 654.826 771.43 654.698C772.456 653.911 773.439 653.088 774.373 652.229C774.434 652.173 774.491 652.115 774.552 652.058C779.454 647.504 783.073 641.985 785.106 635.95C785.152 635.826 785.187 635.7 785.229 635.575Z" fill="#103B9B"/>
<path d="M785.433 365.309C784.9 363.534 784.229 361.803 783.432 360.12C780.17 353.244 774.78 347.23 767.738 342.873C766.706 342.235 765.653 341.62 764.552 341.055L734.448 325.61L706.266 311.15L705.971 311L499.5 433.376L293.055 311.012L277.419 319.041L249.243 333.51L234.394 341.136C233.325 341.684 232.302 342.281 231.298 342.899C226.991 345.551 223.306 348.828 220.333 352.536C218.337 355.026 216.673 357.711 215.365 360.541C213.188 365.259 212 370.368 212 375.634L212.005 395.864L387.401 499.822L212.043 603.756L212.046 624.76V624.767C212.047 625.671 212.089 626.569 212.157 627.463C212.178 627.725 212.212 627.985 212.237 628.245C212.301 628.889 212.376 629.528 212.474 630.162C212.517 630.438 212.569 630.713 212.619 630.988C212.732 631.627 212.861 632.26 213.009 632.89C213.065 633.125 213.123 633.362 213.182 633.596C213.366 634.315 213.574 635.026 213.802 635.731C213.845 635.863 213.882 635.997 213.927 636.129C215.123 639.689 216.873 643.067 219.112 646.179L219.113 646.182L219.116 646.183C220.658 648.327 222.428 650.339 224.415 652.193C224.48 652.254 224.544 652.317 224.609 652.378C225.543 653.238 226.522 654.064 227.547 654.849C227.712 654.978 227.884 655.1 228.05 655.226C229.084 655.999 230.148 656.747 231.266 657.437C232.298 658.075 233.351 658.69 234.452 659.255L264.132 674.484L292.315 688.945L292.422 689L499.503 566.265L706.559 688.987L718.258 682.979L746.433 668.511L764.612 659.176C765.682 658.627 766.705 658.03 767.707 657.412C768.829 656.722 769.892 655.978 770.926 655.209C771.096 655.084 771.267 654.96 771.434 654.832C772.459 654.045 773.443 653.223 774.377 652.364C774.439 652.308 774.495 652.249 774.556 652.193C779.458 647.639 783.077 642.12 785.11 636.087C785.154 635.963 785.189 635.835 785.229 635.71C785.46 634.995 785.673 634.272 785.859 633.544C785.921 633.309 785.976 633.075 786.031 632.839C786.18 632.206 786.312 631.569 786.426 630.927C786.475 630.651 786.526 630.374 786.571 630.095C786.671 629.458 786.743 628.815 786.808 628.173C786.834 627.91 786.868 627.65 786.891 627.384C786.959 626.487 787 625.586 787 624.677V624.67L786.997 603.775L611.6 499.818L786.958 395.883L786.955 375.547C786.959 372.041 786.424 368.608 785.433 365.309Z" fill="white"/>
<path d="M771.004 655.452C771.174 655.327 771.345 655.203 771.512 655.075C772.538 654.286 773.521 653.463 774.456 652.603C774.518 652.546 774.574 652.488 774.635 652.431C779.538 647.871 783.158 642.343 785.191 636.3C785.235 636.176 785.27 636.048 785.31 635.923C785.542 635.207 785.755 634.483 785.94 633.754C786.002 633.518 786.057 633.284 786.113 633.047C786.262 632.413 786.393 631.776 786.508 631.133C786.556 630.856 786.608 630.578 786.652 630.299C786.753 629.661 786.825 629.017 786.889 628.374C786.916 628.11 786.95 627.85 786.972 627.584C786.988 627.371 786.987 627.152 787 626.937L536.461 477.893L766.059 341.629C765.58 341.358 765.119 341.065 764.626 340.81L734.515 325.34L726.07 321L462.16 477.648L233.013 341.652C232.425 341.986 231.823 342.304 231.253 342.655C226.945 345.312 223.26 348.594 220.286 352.307C218.289 354.801 216.625 357.49 215.317 360.325C213.386 364.517 212.237 369.016 212 373.661L461.745 522.239L232.4 658.353C233.063 658.743 233.718 659.145 234.413 659.502L264.099 674.755L272.363 679L536.897 522.001L766.605 658.332C766.994 658.103 767.403 657.893 767.785 657.658C768.906 656.969 769.97 656.223 771.004 655.452Z" fill="#ED1F34"/>
<path d="M764.61 659.668L755.499 664.361L536.87 534.38L283.523 685L264.133 675.021L261.266 673.547L530.479 513.491C534.347 511.191 539.386 511.191 543.256 513.491L775.602 651.63C775.255 651.976 774.915 652.329 774.555 652.664C774.494 652.72 774.437 652.78 774.376 652.835C773.44 653.696 772.457 654.521 771.433 655.311C771.266 655.438 771.095 655.564 770.925 655.689C769.891 656.46 768.827 657.208 767.706 657.899C766.702 658.519 765.678 659.117 764.61 659.668ZM473.254 522.277C473.256 518.846 471.336 515.642 468.136 513.735L214.375 362.5C212.837 366.552 212 370.844 212 375.251L212.003 385.791L440.995 522.262L223.41 651.623C223.751 651.965 224.06 652.329 224.418 652.661C224.482 652.722 224.547 652.786 224.611 652.847C225.546 653.709 226.525 654.538 227.55 655.325C227.714 655.454 227.887 655.578 228.053 655.703C229.087 656.479 230.15 657.229 231.269 657.921C232.301 658.561 233.353 659.178 234.455 659.745L243.467 664.383L468.127 530.816C471.326 528.913 473.253 525.709 473.254 522.277ZM462.151 487.883C464.377 487.883 466.606 487.309 468.538 486.157L737.129 326.454L734.448 325.073L714.878 315L462.151 465.271L244.113 335.64L234.396 340.646C233.326 341.196 232.303 341.795 231.299 342.414C228.539 344.119 226.067 346.104 223.843 348.272L455.763 486.157C457.697 487.307 459.923 487.883 462.151 487.883ZM524.923 477.854C524.922 481.286 526.842 484.492 530.041 486.399L784.532 638.062C784.733 637.546 784.935 637.031 785.11 636.509C785.154 636.385 785.189 636.257 785.229 636.131C785.46 635.414 785.673 634.689 785.859 633.959C785.921 633.723 785.976 633.488 786.031 633.251C786.18 632.616 786.312 631.978 786.426 631.333C786.475 631.056 786.526 630.778 786.571 630.499C786.671 629.859 786.743 629.215 786.808 628.571C786.835 628.307 786.868 628.046 786.891 627.78C786.959 626.88 787 625.976 787 625.064V625.057L786.999 614.829L557.178 477.869L775.203 348.247C772.982 346.074 770.488 344.102 767.732 342.391C766.701 341.751 765.648 341.134 764.546 340.567L754.927 335.617L530.048 469.315C526.848 471.217 524.924 474.422 524.923 477.854Z" fill="black"/>
<path d="M786.997 545.995V541.064L786.991 511.136L786.98 454.001L786.979 444.372H561.685V236.776L537.579 224.405L521.847 216.333C507.985 209.22 490.906 209.222 477.045 216.34L461.419 224.364L437.313 236.743V444.372H212L212.001 454.001L212.017 540.292L212.018 544.985V545.979V545.981V545.996V546.002L212.02 554.955H437.313V763.224L461.419 775.595L477.151 783.667C491.013 790.78 508.093 790.778 521.954 783.66L537.579 775.636L561.685 763.257V554.956H787L786.999 545.998V545.995H786.997Z" fill="white"/>
<path d="M786.989 469.97H532.897V222.003L521.848 216.333C507.985 209.22 490.905 209.222 477.044 216.34L466.103 221.959V469.97H212L212.011 529.356H466.103V777.997L477.152 783.667C491.015 790.78 508.095 790.778 521.956 783.66L532.897 778.041V529.356H787L786.997 511.137L786.989 469.97Z" fill="#ED1F34"/>
<path d="M799.955 375.191C799.955 370.843 799.305 366.476 798.025 362.21C797.361 359.999 796.508 357.784 795.482 355.622C791.289 346.782 784.406 339.226 775.582 333.769C774.136 332.874 772.814 332.121 771.539 331.467L528.354 206.738C510.833 197.752 489.061 197.754 471.541 206.746L228.407 331.544C227.161 332.183 225.912 332.892 224.47 333.778C219.082 337.096 214.405 341.204 210.565 345.99C208.045 349.132 205.926 352.544 204.266 356.137C201.436 362.266 200 368.706 200 375.279L200.047 624.811C200.047 625.897 200.092 627.015 200.186 628.232C200.208 628.514 200.237 628.794 200.27 629.071L200.287 629.221C200.367 630.034 200.463 630.842 200.591 631.677C200.637 631.98 200.691 632.282 200.766 632.689C200.911 633.506 201.076 634.317 201.267 635.124C201.338 635.422 201.411 635.721 201.483 636.009C201.717 636.918 201.981 637.818 202.28 638.75C202.333 638.92 202.387 639.091 202.432 639.22C203.932 643.686 206.129 647.952 208.963 651.9C208.984 651.929 209.004 651.96 209.026 651.989C210.982 654.704 213.238 657.26 215.684 659.543C215.747 659.604 215.915 659.763 215.979 659.823C217.161 660.913 218.415 661.966 219.704 662.956L220.339 663.431C221.784 664.51 223.117 665.424 224.422 666.233C225.893 667.141 227.174 667.87 228.46 668.53L471.647 793.261C480.407 797.754 490.226 800 500.045 800C509.871 800 519.698 797.751 528.461 793.253L771.594 668.454C772.84 667.815 774.089 667.106 775.533 666.219C776.837 665.416 778.171 664.503 779.631 663.421L780.259 662.953C781.559 661.957 782.816 660.904 784.038 659.781L784.217 659.611C790.41 653.864 795.037 646.802 797.572 639.274C797.637 639.086 797.696 638.898 797.766 638.672C798.055 637.779 798.321 636.877 798.553 635.969C798.63 635.674 798.701 635.377 798.776 635.062C798.964 634.261 799.131 633.455 799.3 632.509C799.354 632.206 799.408 631.904 799.461 631.576C799.583 630.771 799.682 629.96 799.76 629.159L799.778 628.989C799.81 628.709 799.84 628.43 799.863 628.144C799.956 626.906 800.001 625.78 800 624.711L799.955 375.191ZM761.963 351.163C767.08 354.328 771.073 358.717 773.509 363.848C774.105 365.107 774.601 366.39 774.984 367.668C775.732 370.157 776.11 372.688 776.11 375.191L776.126 458.674H546.502V240.515L759.618 349.821C760.313 350.177 761.058 350.604 761.963 351.163ZM226.325 364.186C227.29 362.097 228.522 360.114 229.982 358.295C232.218 355.507 234.932 353.121 238.046 351.204C238.934 350.659 239.655 350.246 240.328 349.901L453.503 240.48V458.676H223.865L223.849 375.278C223.847 371.479 224.681 367.744 226.325 364.186ZM238.045 648.84C237.332 648.398 236.579 647.879 235.649 647.185L235.301 646.926C234.552 646.351 233.824 645.739 233.227 645.19C233.182 645.146 233.046 645.014 232.997 644.972C231.568 643.638 230.271 642.173 229.142 640.613C229.126 640.591 229.11 640.57 229.094 640.547C227.437 638.243 226.151 635.757 225.289 633.186L225.189 632.87C225.021 632.349 224.867 631.825 224.73 631.287L224.604 630.771C224.498 630.315 224.403 629.855 224.316 629.367L224.213 628.782C224.142 628.312 224.089 627.84 224.04 627.35L223.978 626.794C223.929 626.137 223.895 625.476 223.895 624.801L223.878 541.327H453.5V759.488L240.386 650.181C239.693 649.824 238.947 649.397 238.045 648.84ZM776.075 626.689L776.007 627.3C775.961 627.775 775.907 628.25 775.839 628.699L775.729 629.322C775.645 629.796 775.549 630.266 775.442 630.717L775.313 631.242C775.175 631.777 775.019 632.307 774.848 632.833C774.846 632.843 774.842 632.854 774.838 632.862L774.755 633.129C773.267 637.535 770.584 641.626 766.968 644.982L766.861 645.086C766.182 645.707 765.454 646.319 764.703 646.896L764.322 647.178C763.434 647.837 762.66 648.369 761.961 648.8C761.074 649.345 760.353 649.758 759.68 650.103L546.504 759.523V541.327H686.118C692.704 541.327 698.041 536.583 698.041 530.731C698.041 524.878 692.704 520.134 686.118 520.134H534.58C527.994 520.134 522.657 524.878 522.657 530.731V771.766L516.539 774.906C506.371 780.124 493.738 780.127 483.572 774.912L477.349 771.721V530.731C477.349 524.878 472.013 520.134 465.426 520.134H223.875L223.867 479.868H465.423C472.01 479.868 477.347 475.125 477.347 469.272V228.237L483.465 225.096C493.633 219.879 506.265 219.876 516.432 225.09L522.655 228.282V469.27C522.655 475.122 527.991 479.866 534.578 479.866H776.125L776.133 520.132H740.571C733.984 520.132 728.647 524.876 728.647 530.728C728.647 536.581 733.984 541.324 740.571 541.324H776.138L776.154 624.739C776.156 625.406 776.122 626.066 776.075 626.689Z" fill="black"/>
<path d="M76.9873 255.773L500 11.547L923.013 255.773V744.227L500 988.453L76.9873 744.227V255.773Z" stroke="black" stroke-width="20"/>
</svg>
