<svg width="1000" height="1000" viewBox="0 0 1000 1000" fill="none" xmlns="http://www.w3.org/2000/svg">
<path d="M76.9873 255.773L500 11.547L923.013 255.773V744.227L500 988.453L76.9873 744.227V255.773Z" stroke="black" stroke-width="20"/>
<path opacity="0.5" fill-rule="evenodd" clip-rule="evenodd" d="M800 500.006C800 665.687 665.684 800 500 800C465.074 800 431.54 794.03 400.366 783.059C387.241 751.305 380 716.5 380 680.002C380 613.368 404.14 552.37 444.152 505.28C479.3 556.447 538.232 590.004 605 590.004C675.845 590.004 737.867 552.223 772.016 495.71C779.195 483.83 800 486.125 800 500.006Z" fill="#444444"/>
<path d="M200 499.994C200 630.749 283.656 741.966 400.366 783.047C387.241 751.293 380 716.488 380 679.99C380 613.356 404.14 552.358 444.152 505.268C422.608 473.904 410 435.922 410 394.996C410 324.151 447.782 262.13 504.296 227.982C516.176 220.804 513.881 200 500 200C334.314 200 200 334.312 200 499.994Z" fill="#444444"/>
</svg>
