<svg width="1000" height="1000" viewBox="0 0 1000 1000" fill="none" xmlns="http://www.w3.org/2000/svg">
<path d="M778.252 629.964C778.48 629.26 778.688 628.548 778.874 627.831C778.933 627.6 778.989 627.369 779.044 627.137C779.19 626.513 779.32 625.887 779.433 625.254C779.481 624.983 779.532 624.71 779.576 624.435C779.673 623.808 779.746 623.175 779.809 622.543C779.836 622.284 779.87 622.028 779.891 621.766C779.958 620.883 780 619.996 780 619.101V619.094L779.992 571.971V571.969L779.986 541.782V541.78V536.925L779.98 507.464L779.97 451.218L779.964 421.031L779.956 373.815C779.956 370.364 779.426 366.984 778.451 363.736C777.925 361.988 777.263 360.283 776.477 358.627C773.261 351.857 767.946 345.936 761.001 341.646C759.983 341.018 758.945 340.413 757.86 339.856L728.176 324.65L700.386 310.413L678.014 298.951L592.457 255.12L559.082 238.021L534.05 225.196L518.537 217.25C504.869 210.248 488.027 210.25 474.36 217.257L458.953 225.156L433.92 237.99L400.545 255.102L314.998 298.963L277.508 318.184L249.726 332.429L235.083 339.937C234.03 340.477 233.019 341.065 232.029 341.673C227.783 344.284 224.147 347.511 221.216 351.161C219.247 353.613 217.607 356.256 216.318 359.043C214.171 363.687 212.999 368.718 213 373.903L213.008 421.034L213.014 451.222L213.03 536.169V540.789V541.767V541.769V541.784V541.79L213.036 571.972V574.119L213.039 588.654L213.044 619.179V619.186C213.044 620.076 213.087 620.96 213.153 621.84C213.174 622.098 213.208 622.354 213.232 622.611C213.295 623.244 213.369 623.873 213.466 624.498C213.509 624.769 213.559 625.04 213.607 625.311C213.72 625.94 213.849 626.563 213.994 627.184C214.049 627.415 214.106 627.648 214.164 627.879C214.346 628.587 214.551 629.287 214.775 629.981C214.818 630.111 214.854 630.242 214.899 630.372C216.078 633.878 217.805 637.203 220.011 640.268L220.013 640.27L220.014 640.271C221.535 642.381 223.28 644.363 225.238 646.188C225.305 646.248 225.367 646.311 225.431 646.371C226.351 647.217 227.317 648.03 228.327 648.803C228.489 648.93 228.657 649.051 228.823 649.174C229.843 649.936 230.892 650.672 231.996 651.351C233.013 651.979 234.051 652.585 235.136 653.142L264.403 668.135L292.193 682.373L314.982 694.049L433.915 754.979L458.948 767.804L474.46 775.75C488.129 782.752 504.97 782.75 518.637 775.743L534.045 767.844L559.077 755.01L592.452 737.9L664.549 700.936L677.997 694.041L712.206 676.502L739.988 662.257L757.915 653.066C758.967 652.525 759.978 651.938 760.968 651.33C762.072 650.65 763.121 649.917 764.142 649.161C764.308 649.037 764.477 648.915 764.642 648.79C765.654 648.014 766.622 647.204 767.546 646.359C767.607 646.304 767.663 646.246 767.723 646.191C772.555 641.707 776.128 636.274 778.131 630.333C778.175 630.212 778.212 630.087 778.252 629.964Z" fill="#FFE000"/>
<path d="M779.958 378.934C779.958 375.374 779.429 371.887 778.453 368.536C777.928 366.733 777.266 364.974 776.479 363.265C773.264 356.281 767.948 350.173 761.003 345.747C759.986 345.1 758.947 344.475 757.863 343.901L728.178 328.213L700.388 313.526L678.015 301.701L592.459 256.483L559.083 238.844L534.051 225.614L518.538 217.416C504.869 210.192 488.028 210.195 474.361 217.423L458.953 225.572L433.921 238.812L400.547 256.464L315.001 301.711L277.508 321.54L249.726 336.236L235.083 343.982C234.03 344.539 233.02 345.145 232.029 345.772C227.783 348.466 224.147 351.795 221.216 355.561C219.247 358.09 217.607 360.817 216.318 363.692C214.171 368.484 212.999 373.673 213 379.022V383.67H779.96V378.934H779.958Z" fill="#ED1F34"/>
<path d="M678.084 627.332H213.044V632.059V632.066C213.044 632.984 213.087 633.896 213.153 634.804C213.174 635.07 213.208 635.334 213.232 635.599C213.295 636.252 213.369 636.901 213.466 637.545C213.509 637.826 213.559 638.105 213.607 638.384C213.72 639.033 213.849 639.676 213.994 640.317C214.049 640.556 214.106 640.796 214.164 641.033C214.346 641.764 214.551 642.485 214.775 643.202C214.818 643.336 214.854 643.472 214.899 643.606C216.078 647.222 217.805 650.653 220.012 653.814L220.013 653.817L220.014 653.818C221.535 655.996 223.28 658.039 225.239 659.923C225.305 659.984 225.367 660.049 225.431 660.11C226.351 660.984 227.318 661.823 228.327 662.62C228.489 662.751 228.657 662.876 228.823 663.003C229.843 663.788 230.893 664.548 231.996 665.249C233.013 665.897 234.051 666.522 235.136 667.096L264.403 682.564L292.193 697.252L314.983 709.298L433.917 772.156L458.949 785.386L474.462 793.584C488.131 800.808 504.972 800.805 518.639 793.577L534.047 785.428L559.079 772.188L592.455 754.536L664.552 716.403L678 709.289L712.21 691.195L739.992 676.499L757.918 667.017C758.971 666.46 759.982 665.854 760.972 665.226C762.076 664.525 763.125 663.769 764.146 662.989C764.312 662.861 764.481 662.736 764.646 662.606C765.658 661.806 766.626 660.971 767.55 660.098C767.611 660.041 767.667 659.982 767.726 659.925C772.559 655.3 776.132 649.694 778.135 643.566C778.175 643.44 778.212 643.31 778.252 643.183C778.48 642.457 778.688 641.723 778.874 640.983C778.933 640.745 778.989 640.507 779.044 640.267C779.19 639.624 779.32 638.977 779.433 638.325C779.481 638.044 779.532 637.763 779.576 637.48C779.673 636.832 779.746 636.18 779.809 635.527C779.835 635.26 779.87 634.996 779.891 634.727C779.959 633.815 780 632.9 780 631.977V631.969V627.329H703.134L678.084 627.332Z" fill="#ED1F34"/>
<path d="M799.954 375.188C799.954 370.84 799.302 366.471 798.021 362.203C797.353 359.979 796.498 357.765 795.482 355.623C791.29 346.783 784.408 339.226 775.578 333.764C774.107 332.855 772.826 332.127 771.54 331.467L528.353 206.738C510.829 197.751 489.059 197.754 471.539 206.746L228.398 331.546C227.151 332.186 225.903 332.895 224.47 333.778C219.082 337.095 214.403 341.202 210.562 345.99C208.041 349.135 205.922 352.548 204.266 356.135C201.435 362.265 200 368.704 200 375.277L200.046 624.808C200.046 625.887 200.091 627.005 200.185 628.229C200.206 628.503 200.233 628.774 200.264 629.046L200.282 629.22C200.363 630.032 200.459 630.842 200.587 631.675C200.632 631.956 200.68 632.236 200.732 632.517L200.765 632.7C200.91 633.51 201.075 634.314 201.266 635.126C201.336 635.424 201.407 635.722 201.482 636.011C201.716 636.92 201.979 637.82 202.281 638.761L202.429 639.222C203.936 643.709 206.149 647.994 209.002 651.962C209.019 651.988 209.039 652.013 209.056 652.039C211.004 654.734 213.247 657.274 215.706 659.569C215.76 659.622 215.917 659.771 215.974 659.822C217.15 660.906 218.403 661.96 219.69 662.949L220.335 663.432C221.782 664.512 223.118 665.428 224.417 666.23C225.885 667.138 227.168 667.868 228.459 668.53L471.646 793.26C480.406 797.753 490.224 800 500.044 800C509.871 800 519.697 797.751 528.459 793.253L771.597 668.453C772.848 667.81 774.097 667.101 775.525 666.222C776.824 665.424 778.161 664.511 779.631 663.419L780.256 662.951C781.562 661.953 782.817 660.899 783.959 659.851L784.219 659.61C790.411 653.861 795.038 646.8 797.609 639.172L797.75 638.728C797.752 638.724 797.753 638.719 797.756 638.714C798.05 637.807 798.317 636.893 798.555 635.97L798.778 635.065C798.965 634.263 799.132 633.458 799.302 632.512C799.356 632.209 799.411 631.907 799.459 631.59C799.585 630.782 799.682 629.967 799.76 629.163L799.778 628.994C799.81 628.713 799.84 628.435 799.862 628.149C799.955 626.925 800 625.805 800 624.714L799.954 375.188ZM229.979 358.293C232.216 355.505 234.931 353.12 238.045 351.202C238.929 350.659 239.654 350.245 240.325 349.899L483.466 225.098C493.634 219.878 506.265 219.877 516.433 225.092L759.618 349.821C760.312 350.177 761.057 350.604 761.963 351.163C767.08 354.328 771.073 358.716 773.513 363.855C774.103 365.101 774.6 366.385 774.984 367.667C775.144 368.197 775.277 368.73 775.402 369.262H224.574C224.985 367.54 225.559 365.84 226.326 364.18C227.29 362.094 228.518 360.112 229.979 358.293ZM775.311 631.239C775.174 631.774 775.019 632.304 774.847 632.83L774.76 633.108C773.273 637.52 770.587 641.616 766.967 644.977L766.859 645.081C766.185 645.701 765.454 646.312 764.679 646.907L764.322 647.173C763.417 647.846 762.666 648.361 761.953 648.799C761.073 649.341 760.351 649.753 759.678 650.099L516.536 774.9C506.37 780.118 493.74 780.121 483.569 774.906L240.384 650.179C239.691 649.823 238.946 649.396 238.039 648.835C237.328 648.394 236.576 647.877 235.689 647.215L235.304 646.928C234.548 646.347 233.822 645.735 233.203 645.167C233.166 645.131 233.036 645.007 232.997 644.972C231.55 643.62 230.238 642.133 229.1 640.552C229.086 640.533 229.075 640.517 229.061 640.498C227.42 638.205 226.147 635.735 225.281 633.153L225.191 632.869C225.024 632.349 224.868 631.825 224.73 631.287L224.607 630.781C224.604 630.765 224.602 630.751 224.598 630.737H673.384C679.969 630.737 685.307 625.994 685.307 620.141C685.307 614.289 679.969 609.545 673.384 609.545H223.891L223.851 390.458H776.113L776.153 609.545H721.101C714.516 609.545 709.178 614.289 709.178 620.141C709.178 625.994 714.516 630.737 721.101 630.737H775.435C775.433 630.753 775.43 630.767 775.426 630.781L775.311 631.239Z" fill="black"/>
<path d="M76.9873 255.773L500 11.547L923.013 255.773V744.227L500 988.453L76.9873 744.227V255.773Z" stroke="black" stroke-width="20"/>
</svg>
