<svg width="1000" height="1000" viewBox="0 0 1000 1000" fill="none" xmlns="http://www.w3.org/2000/svg">
<path d="M624.75 499.75C624.75 568.785 568.785 624.75 499.75 624.75C430.714 624.75 374.75 568.785 374.75 499.75C374.75 430.714 430.714 374.75 499.75 374.75C568.785 374.75 624.75 430.714 624.75 499.75Z" fill="white"/>
<path fill-rule="evenodd" clip-rule="evenodd" d="M499.75 231C510.105 231 518.5 239.395 518.5 249.75V299.75C518.5 310.105 510.105 318.5 499.75 318.5C489.395 318.5 481 310.105 481 299.75V249.75C481 239.395 489.395 231 499.75 231ZM231 499.75C231 489.395 239.395 481 249.75 481H299.75C310.105 481 318.5 489.395 318.5 499.75C318.5 510.105 310.105 518.5 299.75 518.5H249.75C239.395 518.5 231 510.105 231 499.75ZM681 499.75C681 489.395 689.395 481 699.75 481H749.75C760.105 481 768.5 489.395 768.5 499.75C768.5 510.105 760.105 518.5 749.75 518.5H699.75C689.395 518.5 681 510.105 681 499.75ZM499.75 681C510.105 681 518.5 689.395 518.5 699.75V749.75C518.5 760.105 510.105 768.5 499.75 768.5C489.395 768.5 481 760.105 481 749.75V699.75C481 689.395 489.395 681 499.75 681Z" fill="white"/>
<g opacity="0.5">
<path d="M291.48 292.64C298.467 284.997 310.327 284.467 317.97 291.454L373.52 342.244C381.163 349.231 381.694 361.091 374.706 368.734C367.719 376.376 355.859 376.907 348.216 369.92L292.666 319.13C285.023 312.142 284.492 300.282 291.48 292.64Z" fill="white"/>
<path d="M708.048 292.64C715.035 300.282 714.505 312.142 706.863 319.13L651.31 369.92C643.668 376.907 631.808 376.376 624.82 368.734C617.833 361.091 618.365 349.231 626.008 342.244L681.558 291.454C689.2 284.467 701.06 284.997 708.048 292.64Z" fill="white"/>
<path d="M625.403 625.367C632.725 618.045 644.595 618.047 651.918 625.37L707.468 680.927C714.79 688.25 714.79 700.12 707.468 707.442C700.145 714.765 688.273 714.765 680.95 707.44L625.4 651.885C618.078 644.56 618.08 632.69 625.403 625.367Z" fill="white"/>
<path d="M374.13 625.372C381.453 632.692 381.453 644.565 374.13 651.887L318.575 707.442C311.252 714.765 299.381 714.765 292.058 707.442C284.736 700.12 284.736 688.25 292.058 680.927L347.614 625.37C354.936 618.05 366.808 618.05 374.13 625.372Z" fill="white"/>
</g>
<path d="M76.9873 255.773L500 11.547L923.013 255.773V744.227L500 988.453L76.9873 744.227V255.773Z" stroke="white" stroke-width="20"/>
</svg>
